<svg xmlns="http://www.w3.org/2000/svg" width="512" height="512"><path d="M208 5.047c-5.225 1.032-11.412 2.403-13.75 3.045L190 9.26V304h-36.99l-2.174-4.626c-5.167-10.991-18.037-20.913-30.428-23.458-10.266-2.108-9.408-6.036-9.408 43.053V362h4.032c4.957 0 14.764-3.215 20.12-6.596 5.86-3.699 12.542-11.079 15.494-17.113l2.589-5.291 27.132-.002c30.322-.001 31.965-.313 36.363-6.896l2.27-3.398V162.852c0-87.919-.338-159.814-.75-159.768-.412.047-5.025.93-10.25 1.963m-63.762 20.906L130 32.906v39.813c0 44.904-.042 44.631 7.604 49.015 7.084 4.061 15.491 2.086 20.146-4.733l2.25-3.297V66.352c0-26.044-.343-47.352-.762-47.352-.42 0-7.17 3.129-15 6.953M102.5 52.059c-4.4 3.319-10.83 8.534-14.289 11.587l-6.289 5.552.289 32.329c.276 30.854.383 32.456 2.351 35.09 5.243 7.018 12.819 8.783 19.63 4.573 7.026-4.342 6.936-3.635 6.605-51.928l-.297-43.238-8 6.035m220.605-.476c-8.05 2.164-14.458 6.058-20.645 12.544-10.765 11.286-14.261 24.618-10.884 41.505.582 2.91-.08 3.597-17.235 17.886-9.813 8.173-18.066 15.113-18.341 15.421-.275.309-3.552 3.2-7.283 6.425-3.731 3.225-7.443 7.14-8.25 8.7-1.26 2.436-1.467 16.594-1.467 100.264 0 76.755-.265 97.634-1.25 98.403-.687.537-5.328 3.147-10.312 5.8l-9.061 4.824-4.522-3.11c-5.541-3.813-15.406-7.245-20.823-7.245H189v87h2.79c3.937 0 13.568-2.632 18.108-4.948 7.142-3.644 14.813-11.688 18.76-19.674 3.142-6.359 3.76-8.75 4.259-16.478l.583-9.04 15.498-8.236c11.55-6.137 16.071-9.086 17.75-11.577l2.252-3.343V168.161l21.59-17.984 21.591-17.985 4.248 1.88c31.327 13.857 66.545-13.442 60.772-47.107-4.403-25.673-29.401-42.023-54.096-35.382m69.003 106.499c-11.239 2.207-22.56 9.938-28.802 19.668l-3.367 5.25-29.72.004c-27.891.003-29.919.126-32.978 1.991-1.793 1.093-4.153 3.453-5.246 5.246-1.961 3.216-1.988 5.363-1.991 161.009-.003 125.538.251 157.749 1.246 157.744 2.13-.01 12.899-1.892 20.5-3.582l7.25-1.613V212h38.598l1.312 3.75c3.17 9.06 12.561 19.899 20.949 24.178 28.233 14.404 61.698-4.194 63.887-35.503 2.024-28.951-23.51-51.867-51.638-46.343M126 205.361V249h2.29c3.978 0 13.881-2.968 18.758-5.623 6.316-3.437 14.18-11.628 17.785-18.524 3.98-7.614 5.698-18.051 4.289-26.053-3.385-19.213-19.347-34.922-37.124-36.534l-5.998-.544v43.639M8.681 190.75c-.878 1.507-4.632 18.909-5.285 24.5L2.725 221h82.498l-.862-3.75c-1.097-4.777-1.117-19.748-.032-24l.83-3.25H47.138c-20.911 0-38.217.338-38.457.75M375 264.433c-21.717 6.052-35.796 27.452-32.167 48.893 1.669 9.854 5.424 17.073 12.598 24.218 10.911 10.866 25.395 15.257 39.762 12.052 9.272-2.068 15.902-5.872 22.611-12.975 15.415-16.32 16.026-40.485 1.477-58.412-9.892-12.189-28.832-18.082-44.281-13.776m34.02 94.319c-1.914.961-4.502 3.277-5.75 5.146l-2.27 3.398v98.8l4.629-3.185c6.393-4.398 15.051-11.392 20.121-16.253l4.25-4.074-.016-37.042c-.017-36.489-.05-37.1-2.25-40.938-3.976-6.935-11.732-9.36-18.714-5.852m-46.426 18.292c-4.092 1.22-9.434 6.72-10.598 10.912-.587 2.111-.987 24.11-.99 54.402L351 493.217l2.7-.678c1.485-.373 8.348-3.494 15.25-6.937l12.55-6.259.26-46.009.26-46.009-2.26-3.321c-4.229-6.213-10.774-8.867-17.166-6.96" fill="undefined" fill-rule="evenodd"/></svg>